# 3ds Max Wavefront OBJ Exporter v0.97b - (c)2007 guruware
# File Created: 16.02.2017 17:30:17

#
# object 004_crystal
#

v  -0.0325 0.2921 0.2429
v  -0.0214 0.2063 0.2186
v  -0.1005 0.1991 0.2298
v  -0.0958 0.2829 0.2697
v  -0.0090 0.1919 0.2975
v  -0.0220 0.2800 0.3089
v  -0.0466 0.2778 0.3123
v  -0.0893 0.2196 0.3141
v  -0.0880 0.1847 0.3087
v  -0.0910 0.2773 0.3005
v  -0.0553 -0.4837 -0.1412
v  -0.1080 -0.4949 -0.1221
v  -0.2255 -0.3750 -0.0961
v  -0.1197 -0.2750 -0.2636
v  -0.0146 -0.0378 0.0694
v  -0.2297 0.0276 -0.0536
v  -0.2956 -0.0447 0.1361
v  -0.0726 -0.0628 0.2125
v  -0.0357 -0.4843 -0.0875
v  -0.0901 -0.5003 -0.0617
v  0.2127 0.4564 -0.0402
v  0.1676 0.5003 -0.2548
v  -0.0468 0.4806 -0.3303
v  -0.2367 0.4161 -0.2228
v  -0.2882 0.3156 -0.1591
v  -0.3569 -0.0053 -0.0697
v  -0.1916 -0.3512 -0.0788
v  -0.1613 -0.3586 -0.0068
v  0.0846 -0.0691 0.1679
v  0.0923 0.2101 0.0149
v  -0.2041 0.2312 -0.0502
v  0.1653 0.4272 -0.0059
v  -0.3334 0.3039 -0.0510
v  0.1724 0.2101 -0.0877
v  -0.2188 0.1064 -0.1938
v  -0.2543 0.0331 -0.2517
v  -0.0647 0.1166 -0.3142
v  0.1022 0.1660 -0.2142
v  -0.0488 -0.0304 -0.3317
v  0.1524 0.0072 -0.0790
v  -0.1097 -0.2371 -0.1946
v  -0.0181 -0.1733 -0.2081
v  0.0773 -0.0998 -0.0646
v  0.1554 -0.1419 -0.0586
v  0.0304 -0.2160 -0.2887
v  -0.2788 -0.1202 -0.2311
v  -0.3224 -0.1343 -0.2344
v  -0.2965 -0.2531 -0.2180
v  -0.2352 -0.2296 -0.1956
v  -0.2728 -0.1281 -0.2765
v  -0.2264 -0.2411 -0.2618
v  -0.2501 -0.2487 -0.2637
v  -0.3100 -0.2135 -0.2833
v  -0.3164 -0.1421 -0.2799
v  -0.2925 -0.2584 -0.2489
v  0.3302 0.2170 -0.1702
v  0.3335 0.2793 -0.1663
v  0.3569 0.2594 -0.1245
v  0.3426 0.2101 -0.1484
v  0.3219 0.2571 -0.1029
v  0.2986 0.2770 -0.1447
v  0.3014 0.2155 -0.1525
v  0.3135 0.2082 -0.1302
v  0.3330 0.2839 -0.1254
v  0.0083 0.3445 0.3155
v  -0.0069 0.3079 0.3076
v  0.0219 0.3094 0.3317
v  0.0211 0.3430 0.3265
v  0.0424 0.3084 0.3101
v  0.0136 0.3069 0.2860
v  0.0234 0.3435 0.2994
v  0.0366 0.3422 0.3104
v  0.0146 0.2917 0.3170
# 73 vertices

vn -0.2977 0.3434 -0.8908
vn -0.1578 0.2501 -0.9553
vn -0.2653 0.3222 -0.9087
vn -0.4051 0.4114 -0.8165
vn 0.1610 -0.1110 0.9807
vn 0.1486 -0.1047 0.9834
vn 0.1584 -0.1001 0.9823
vn 0.1611 -0.1196 0.9797
vn 0.1515 -0.1462 0.9776
vn 0.0624 -0.9800 -0.1892
vn 0.0623 -0.9800 -0.1892
vn 0.0624 -0.9800 -0.1891
vn 0.9789 0.1613 -0.1252
vn -0.0624 0.9800 0.1892
vn -0.9895 -0.0274 0.1421
vn -0.9874 0.0091 0.1577
vn -0.9896 -0.0009 0.1438
vn -0.9902 -0.0243 0.1374
vn -0.9876 -0.0584 0.1454
vn -0.2549 0.2157 0.9426
vn -0.4521 -0.3717 -0.8108
vn -0.3184 -0.1079 -0.9418
vn -0.5006 -0.4871 -0.7156
vn -0.5221 -0.5458 -0.6554
vn 0.0405 0.9621 0.2696
vn 0.0665 0.9245 0.3753
vn 0.0496 0.9505 0.3069
vn 0.0185 0.9837 0.1789
vn 0.1977 -0.9734 -0.1158
vn 0.1804 -0.9805 -0.0775
vn 0.1978 -0.9733 -0.1162
vn 0.2131 -0.9654 -0.1505
vn -0.1769 0.9551 0.2377
vn -0.1699 0.9578 0.2317
vn -0.1813 0.9533 0.2415
vn -0.1847 0.9519 0.2444
vn -0.3421 0.6216 0.7047
vn -0.8778 -0.4363 0.1976
vn -0.8855 -0.4277 0.1815
vn -0.8439 -0.4690 0.2606
vn -0.8218 -0.4866 0.2964
vn -0.3221 -0.4996 0.8041
vn -0.3165 -0.5019 0.8049
vn -0.3455 -0.4899 0.8004
vn -0.3531 -0.4866 0.7991
vn 0.0988 0.9728 0.2095
vn -0.1859 0.2869 0.9398
vn -0.3186 0.9042 0.2845
vn -0.3251 0.8928 0.3119
vn -0.2458 0.9691 0.0217
vn -0.2404 0.9707 0.0046
vn 0.7550 -0.2094 0.6214
vn 0.6621 -0.2451 0.7082
vn 0.6903 -0.2351 0.6842
vn 0.7720 -0.2018 0.6027
vn -0.2724 0.9269 0.2584
vn -0.0644 -0.1026 0.9926
vn -0.4855 0.0462 0.8730
vn -0.0153 -0.0151 0.9998
vn -0.4875 0.8690 0.0850
vn -0.9278 0.3513 0.1254
vn -0.7289 0.6758 0.1097
vn -0.2569 0.9646 0.0590
vn -0.9035 -0.3126 -0.2930
vn -0.9048 -0.3373 -0.2599
vn -0.8981 -0.2707 -0.3467
vn -0.8889 -0.2292 -0.3967
vn -0.6835 -0.1070 -0.7221
vn -0.5648 -0.0735 -0.8219
vn -0.6075 -0.1087 -0.7868
vn -0.5277 -0.0441 -0.8483
vn -0.4892 -0.0147 -0.8721
vn 0.4669 -0.1030 -0.8783
vn 0.5263 -0.0636 -0.8479
vn 0.4042 -0.1420 -0.9036
vn 0.3415 -0.1788 -0.9227
vn 0.9177 -0.1867 -0.3506
vn 0.8834 -0.2228 -0.4122
vn 0.9441 -0.1526 -0.2921
vn 0.9672 -0.1146 -0.2267
vn -0.4814 0.6751 -0.5590
vn -0.6320 -0.6296 0.4520
vn -0.5522 -0.6537 0.5174
vn -0.7543 -0.5703 0.3252
vn -0.8407 -0.5016 0.2040
vn 0.4732 0.1547 -0.8672
vn 0.8849 -0.1069 -0.4534
vn -0.8138 0.5510 -0.1848
vn -0.6619 -0.3477 -0.6641
vn -0.6302 -0.2820 -0.7234
vn -0.6934 -0.4261 -0.5810
vn -0.7125 -0.4877 -0.5045
vn -0.0856 -0.5329 -0.8418
vn -0.4376 -0.4037 -0.8034
vn -0.2816 -0.4712 -0.8359
vn 0.2981 -0.5870 -0.7527
vn 0.7722 -0.2004 0.6029
vn 0.6691 -0.3840 0.6363
vn -0.6408 0.7228 0.2588
vn -0.2008 0.1603 0.9664
vn 0.4599 0.8783 -0.1305
vn 0.4146 0.9004 -0.1320
vn 0.4345 0.8910 -0.1314
vn 0.4788 0.8683 -0.1298
vn 0.8402 -0.4422 -0.3138
vn 0.8401 -0.4423 -0.3140
vn 0.8408 -0.4417 -0.3130
vn 0.8413 -0.4413 -0.3123
vn 0.7754 -0.2494 -0.5802
vn 0.2102 0.8789 -0.4282
vn 0.4102 0.6718 -0.6168
vn 0.3424 0.7574 -0.5561
vn 0.1650 0.9092 -0.3821
vn 0.7638 -0.3205 -0.5603
vn -0.3417 0.0746 -0.9368
vn -0.6515 0.6765 0.3434
vn 0.2349 -0.5291 0.8154
vn 0.2130 -0.5249 0.8241
vn 0.4329 -0.5539 0.7112
vn 0.4849 -0.5558 0.6753
vn 0.7865 -0.4725 0.3977
vn -0.4372 0.7263 -0.5304
vn -0.3776 0.7049 -0.6004
vn -0.4896 0.7405 -0.4605
vn -0.5717 0.7512 -0.3299
vn 0.0493 -0.4940 -0.8681
vn 0.6691 -0.0342 0.7424
vn 0.7834 -0.5799 -0.2236
vn -0.2021 0.1229 0.9716
vn -0.1119 0.1124 0.9873
vn -0.3254 0.1358 0.9358
vn -0.3873 0.1417 0.9110
vn 0.1499 -0.0018 -0.9887
vn 0.1037 -0.0862 -0.9909
vn 0.1715 -0.0726 -0.9825
vn 0.2343 -0.0253 -0.9718
vn 0.0595 0.0529 -0.9968
vn -0.2861 0.9372 -0.1994
vn -0.2860 0.9372 -0.1994
vn 0.9213 0.3848 0.0554
vn 0.2861 -0.9372 0.1993
vn 0.2860 -0.9372 0.1995
vn 0.2860 -0.9372 0.1994
vn 0.2861 -0.9372 0.1994
vn -0.9777 -0.2093 0.0192
vn -0.9161 -0.3976 -0.0523
vn -0.9550 -0.2960 0.0174
vn -0.9902 -0.1369 -0.0288
vn -0.9897 -0.0828 -0.1165
vn -0.1208 -0.6324 -0.7652
vn 0.8688 -0.0126 -0.4950
vn 0.8698 -0.0152 -0.4932
vn 0.8693 -0.0139 -0.4941
vn 0.8679 -0.0104 -0.4965
vn -0.8880 -0.0982 0.4493
vn -0.8879 -0.0982 0.4493
vn -0.8879 -0.0983 0.4494
vn 0.4829 -0.4907 0.7252
vn 0.4843 -0.4917 0.7237
vn 0.4820 -0.4901 0.7263
vn 0.4808 -0.4892 0.7276
vn 0.4449 0.4597 0.7686
vn -0.1335 0.9846 -0.1133
vn -0.5269 0.0817 -0.8460
vn -0.5274 0.0813 -0.8457
vn -0.5264 0.0821 -0.8463
vn -0.5257 0.0826 -0.8466
vn -0.4592 0.6745 0.5781
vn 0.7177 0.6928 -0.0707
vn -0.1015 -0.9622 -0.2528
vn -0.1006 -0.9604 -0.2598
vn -0.1013 -0.9617 -0.2548
vn -0.1022 -0.9634 -0.2476
vn -0.6433 0.1016 0.7589
vn -0.6418 0.1027 0.7599
vn -0.6427 0.1021 0.7593
vn -0.6447 0.1006 0.7578
vn 0.6367 0.1119 -0.7630
vn 0.6348 0.1103 -0.7648
vn 0.6381 0.1131 -0.7616
vn 0.6415 0.1159 -0.7584
vn 0.7206 0.1197 0.6829
vn 0.7189 0.1214 0.6844
vn 0.7213 0.1190 0.6824
vn 0.7227 0.1176 0.6811
vn 0.5287 -0.6586 0.5354
vn -0.4443 -0.8103 -0.3821
vn -0.6513 0.4088 -0.6393
vn -0.6512 0.4086 -0.6395
vn -0.6513 0.4087 -0.6394
vn -0.6514 0.4089 -0.6391
vn 0.3902 -0.8220 -0.4147
vn -0.5889 -0.3567 0.7253
vn 0.0857 0.9961 0.0232
vn 0.0785 0.9967 0.0226
vn 0.0836 0.9962 0.0230
vn 0.0909 0.9956 0.0236
# 197 vertex normals

vt 0.4396 0.9779 0.0000
vt 0.4158 0.9848 0.0000
vt 0.4104 0.9634 0.0000
vt 0.4354 0.9580 0.0000
vt 0.4744 0.9729 0.0000
vt 0.4523 0.9674 0.0000
vt 0.4513 0.9633 0.0000
vt 0.4637 0.9490 0.0000
vt 0.4754 0.9497 0.0000
vt 0.4980 0.9513 0.0000
vt 0.4969 0.9736 0.0000
vt 0.4621 0.9941 0.0000
vt 0.4456 0.9532 0.0000
vt 0.4413 0.9460 0.0000
vt 0.4570 0.9255 0.0000
vt 0.4706 0.9434 0.0000
vt 0.0615 0.9522 0.0000
vt 0.0590 0.9590 0.0000
vt 0.0359 0.9696 0.0000
vt 0.0250 0.9414 0.0000
vt 0.0993 0.8568 0.0000
vt 0.1427 0.8664 0.0000
vt 0.1200 0.8859 0.0000
vt 0.0936 0.8783 0.0000
vt 0.0708 0.9508 0.0000
vt 0.0658 0.9643 0.0000
vt 0.2874 0.9059 0.0000
vt 0.3215 0.9037 0.0000
vt 0.3405 0.9328 0.0000
vt 0.3308 0.9660 0.0000
vt 0.3181 0.9810 0.0000
vt 0.1439 0.8861 0.0000
vt 0.1252 0.9406 0.0000
vt 0.1055 0.9367 0.0000
vt 0.0852 0.9554 0.0000
vt 0.0742 0.8716 0.0000
vt 0.2306 0.9724 0.0000
vt 0.2579 0.9397 0.0000
vt 0.2836 0.9786 0.0000
vt 0.2829 0.9147 0.0000
vt 0.3030 0.9906 0.0000
vt 0.2482 0.9218 0.0000
vt 0.2825 0.9042 0.0000
vt 0.1499 0.8357 0.0000
vt 0.1719 0.8318 0.0000
vt 0.1719 0.8740 0.0000
vt 0.1681 0.8887 0.0000
vt 0.1854 0.8427 0.0000
vt 0.2047 0.8390 0.0000
vt 0.1995 0.8927 0.0000
vt 0.2370 0.8526 0.0000
vt 0.2283 0.9080 0.0000
vt 0.2663 0.8731 0.0000
vt 0.0438 0.9828 0.0000
vt 0.1883 0.9112 0.0000
vt 0.2238 0.9403 0.0000
vt 0.0155 0.9440 0.0000
vt 0.1584 0.9361 0.0000
vt 0.1799 0.9378 0.0000
vt 0.2090 0.9526 0.0000
vt 0.0320 0.9722 0.0000
vt 0.0381 0.8873 0.0000
vt 0.0532 0.8620 0.0000
vt 0.0477 0.8945 0.0000
vt 0.0262 0.9224 0.0000
vt 0.0168 0.9177 0.0000
vt 0.3984 0.9660 0.0000
vt 0.4033 0.9804 0.0000
vt 0.3652 0.9947 0.0000
vt 0.3684 0.9799 0.0000
vt 0.3906 0.9521 0.0000
vt 0.3576 0.9698 0.0000
vt 0.3533 0.9702 0.0000
vt 0.3634 0.9504 0.0000
vt 0.3813 0.9435 0.0000
vt 0.3817 0.9311 0.0000
vt 0.3965 0.9369 0.0000
vt 0.3518 0.9886 0.0000
vt 0.3470 0.9525 0.0000
vt 0.3446 0.9409 0.0000
vt 0.5345 0.9825 0.0000
vt 0.5105 0.9619 0.0000
vt 0.5297 0.9549 0.0000
vt 0.5458 0.9745 0.0000
vt 0.5385 0.9450 0.0000
vt 0.5420 0.9243 0.0000
vt 0.5671 0.9457 0.0000
vt 0.5595 0.9587 0.0000
vt 0.5226 0.9418 0.0000
vt 0.5023 0.9428 0.0000
vt 0.4991 0.9783 0.0000
vt 0.5240 0.9950 0.0000
vt 0.5556 0.9880 0.0000
vt 0.5450 0.9951 0.0000
vt 0.1648 0.9540 0.0000
vt 0.1921 0.9587 0.0000
vt 0.1765 0.9763 0.0000
vt 0.1589 0.9649 0.0000
vt 0.1249 0.9900 0.0000
vt 0.1227 0.9682 0.0000
vt 0.1448 0.9707 0.0000
vt 0.1504 0.9793 0.0000
vt 0.1703 0.9933 0.0000
vt 0.1905 0.9800 0.0000
vt 0.1043 0.9729 0.0000
vt 0.1179 0.9528 0.0000
vt 0.1485 0.9574 0.0000
# 107 texture coords

g 004_crystal
s 1
f 1/1/1 2/2/2 3/3/3 4/4/4 
f 5/5/5 6/6/6 7/7/7 8/8/8 9/9/9 
s 2
f 9/9/10 3/10/11 2/11/10 5/5/12 
s 4
f 5/5/13 2/12/13 1/1/13 6/6/13 
s 2
f 10/13/14 7/7/14 6/6/14 1/1/14 4/4/14 
s 4
f 8/8/15 10/13/16 4/14/17 3/15/18 9/16/19 
s 8
f 10/13/20 8/8/20 7/7/20 
s 1
f 11/17/21 12/18/22 13/19/23 14/20/24 
f 15/21/25 16/22/26 17/23/27 18/24/28 
s 2
f 12/18/29 11/17/30 19/25/31 20/26/32 
s 1
f 21/27/33 22/28/34 23/29/35 24/30/36 
s 2
f 21/27/37 24/30/37 25/31/37 
f 17/23/38 26/32/39 27/33/40 28/34/41 
s 4
f 18/24/42 17/23/43 28/34/44 20/35/45 
s 2
f 18/24/46 29/36/46 15/21/46 
s 4
f 15/37/47 30/38/47 31/39/47 
f 32/40/48 21/27/49 25/31/50 33/41/51 
s 8
f 34/42/52 21/43/53 32/40/54 30/38/55 
f 16/22/56 26/32/56 17/23/56 
s 1
f 31/39/57 32/40/57 33/41/57 
s 16
f 31/44/58 16/22/58 15/21/58 
s 2
f 16/22/59 31/44/59 33/45/59 
s 4
f 16/22/60 35/46/61 36/47/62 26/32/63 
s 32
f 35/46/64 16/22/65 33/45/66 25/48/67 
s 8
f 35/46/68 25/48/68 24/49/68 
s 16
f 37/50/69 35/46/70 24/49/71 23/51/72 
s 2
f 38/52/73 37/50/74 23/51/75 22/53/76 
s 16
f 34/42/77 38/52/78 22/53/79 21/43/80 
s 1
f 36/47/81 35/46/81 37/50/81 
s 8
f 28/54/82 13/19/83 12/18/84 20/26/85 
s 4
f 37/50/86 38/52/86 39/55/86 
s 1
f 38/52/87 34/42/87 40/56/87 
s 2
f 14/20/88 13/19/88 41/57/88 
s 16
f 41/58/89 27/33/90 26/32/91 36/47/92 
s 8
f 41/58/93 36/47/94 39/55/95 42/59/96 
s 32
f 34/42/97 30/38/97 15/37/97 
s 8
f 40/56/98 15/37/98 43/60/98 
s 4
f 13/19/99 27/61/99 41/57/99 
s 64
f 31/39/100 30/38/100 32/40/100 
f 43/62/101 15/63/102 29/36/103 44/64/104 
s 4
f 45/65/105 44/64/106 19/25/107 11/17/108 
s 32
f 40/56/109 39/55/109 38/52/109 
s 1
f 42/66/110 43/62/111 44/64/112 45/65/113 
s 2
f 40/56/114 42/59/114 39/55/114 
s 64
f 36/47/115 37/50/115 39/55/115 
s 32
f 28/54/116 27/61/116 13/19/116 
s 16
f 29/36/117 18/24/118 20/35/119 19/25/120 
s 8
f 29/36/121 19/25/121 44/64/121 
s 32
f 42/66/122 45/65/123 14/20/124 41/57/125 
s 8
f 14/20/126 45/65/126 11/17/126 
s 128
f 40/56/127 34/42/127 15/37/127 
s 4
f 40/56/128 43/60/128 42/59/128 
s 1
f 46/67/129 47/68/130 48/69/131 49/70/132 
f 50/71/133 51/72/134 52/73/135 53/74/136 54/75/137 
s 2
f 54/75/138 47/76/138 46/77/138 50/71/139 
s 4
f 50/71/140 46/67/140 49/70/140 51/72/140 
s 2
f 55/78/141 52/73/142 51/72/143 49/70/144 48/69/141 
s 4
f 53/74/145 55/79/146 48/80/147 47/76/148 54/75/149 
s 8
f 55/79/150 53/74/150 52/73/150 
s 1
f 56/81/151 57/82/152 58/83/153 59/84/154 
f 60/85/155 61/86/155 62/87/156 63/88/157 
s 2
f 63/88/158 59/84/159 58/83/160 60/85/161 
s 4
f 58/83/162 64/89/162 60/85/162 
s 2
f 64/89/163 57/82/163 61/90/163 
s 4
f 61/91/164 57/82/165 56/81/166 62/92/167 
s 8
f 60/85/168 64/89/168 61/86/168 
s 16
f 57/82/169 64/89/169 58/83/169 
s 8
f 59/84/170 63/93/171 62/94/172 56/81/173 
s 1
f 65/95/174 66/96/175 67/97/176 68/98/177 
f 69/99/178 70/100/179 71/101/180 72/102/181 
s 2
f 72/102/182 68/98/183 67/97/184 69/103/185 
s 4
f 67/97/186 73/104/186 69/103/186 
s 2
f 73/105/187 66/106/187 70/100/187 
s 4
f 71/101/188 70/100/189 66/106/190 65/107/191 
s 8
f 69/99/192 73/105/192 70/100/192 
s 16
f 66/96/193 73/104/193 67/97/193 
s 8
f 68/98/194 72/102/195 71/101/196 65/107/197 
# 43 polygons - 34 triangles

