# 3ds Max Wavefront OBJ Exporter v0.97b - (c)2007 guruware
# File Created: 16.02.2017 17:28:03

#
# object 003_planet_01
#

v  -0.3440 -0.1939 -0.2422
v  0.0115 -0.3007 -0.3136
v  -0.0672 -0.4145 -0.1078
v  -0.2722 -0.3475 -0.0294
v  -0.1122 -0.0662 -0.3776
v  0.2418 -0.2407 -0.2711
v  0.1155 -0.3959 0.0588
v  0.2924 -0.3025 -0.0030
v  0.0475 -0.0320 -0.4105
v  -0.3759 -0.2211 0.1310
v  -0.4070 -0.0267 -0.1658
v  -0.4291 -0.0252 0.0557
v  -0.1519 -0.2760 0.2767
v  -0.0207 -0.3665 0.1687
v  -0.3427 0.1075 -0.2273
v  -0.1027 0.1589 -0.3547
v  0.1482 -0.1067 0.3797
v  0.0517 0.2311 0.3759
v  -0.1501 0.0912 0.4105
v  -0.1160 -0.1356 0.4041
v  0.3009 0.1005 0.2146
v  -0.0495 0.3989 0.2024
v  -0.3218 0.1720 0.2509
v  -0.2716 0.3366 0.1315
v  0.3105 0.2414 0.1637
v  0.2059 -0.2385 0.2433
v  -0.3474 -0.0625 0.2609
v  0.3137 -0.1364 0.1968
v  0.4291 0.0465 -0.0606
v  0.2206 0.1344 -0.3416
v  0.0013 0.3867 -0.2334
v  0.2020 0.3880 -0.0878
v  0.3562 0.2232 -0.1295
v  -0.1874 0.4145 -0.0849
v  0.1207 0.3931 0.1464
v  0.2707 -0.0497 -0.3602
v  0.3276 -0.1466 -0.1513
v  -0.3894 0.2352 0.0011
# 38 vertices

vn -0.3826 -0.7811 -0.4935
vn -0.3395 -0.7622 -0.5512
vn -0.3739 -0.7776 -0.5055
vn -0.4250 -0.7961 -0.4308
vn -0.2929 -0.3926 -0.8718
vn 0.3245 -0.8866 -0.3295
vn 0.3509 -0.8919 -0.2853
vn 0.3331 -0.8886 -0.3155
vn 0.2977 -0.8791 -0.3724
vn 0.3719 -0.8866 -0.2748
vn 0.0325 -0.3432 -0.9387
vn 0.2587 -0.3584 -0.8970
vn 0.1382 -0.3526 -0.9255
vn -0.1246 -0.3220 -0.9385
vn -0.9455 -0.3090 -0.1031
vn -0.9513 -0.2941 -0.0928
vn -0.3730 -0.8603 0.3476
vn -0.4383 -0.8217 0.3643
vn -0.3976 -0.8465 0.3541
vn -0.3313 -0.8816 0.3362
vn -0.5060 0.0724 -0.8595
vn -0.4843 0.1087 -0.8681
vn -0.5037 0.0764 -0.8605
vn -0.5220 0.0445 -0.8518
vn -0.7298 0.0371 -0.6826
vn -0.1776 -0.9641 0.1973
vn -0.0657 -0.9812 0.1815
vn -0.1371 -0.9718 0.1918
vn -0.2327 -0.9509 0.2043
vn 0.1150 0.0183 0.9932
vn 0.1354 0.0498 0.9895
vn 0.1182 0.0234 0.9927
vn 0.0937 -0.0141 0.9955
vn 0.5991 0.1800 0.7802
vn -0.3309 0.6007 0.7278
vn -0.3747 0.6005 0.7064
vn -0.3405 0.6008 0.7233
vn -0.2872 0.5995 0.7471
vn -0.3910 0.6154 0.6844
vn 0.5573 0.4442 0.7015
vn 0.3897 0.7652 0.5125
vn 0.4604 0.6600 0.5937
vn 0.6111 0.2317 0.7569
vn 0.1402 -0.6839 0.7160
vn 0.1385 -0.6822 0.7180
vn 0.1393 -0.6830 0.7170
vn 0.1413 -0.6850 0.7147
vn 0.1383 -0.6702 0.7292
vn -0.5630 -0.4650 0.6832
vn -0.5603 -0.4623 0.6872
vn -0.5646 -0.4667 0.6808
vn -0.5673 -0.4694 0.6766
vn 0.9077 0.0173 0.4193
vn 0.6503 -0.3901 0.6519
vn -0.5978 -0.0131 0.8016
vn -0.6510 0.1034 0.7520
vn -0.6077 0.0068 0.7942
vn -0.5473 -0.1057 0.8302
vn 0.4770 0.6390 -0.6035
vn 0.4436 0.6501 -0.6170
vn 0.4717 0.6408 -0.6057
vn 0.5107 0.6266 -0.5887
vn 0.0698 0.4438 -0.8934
vn 0.0673 0.9965 -0.0499
vn 0.0677 0.9977 0.0018
vn 0.0674 0.9972 -0.0334
vn 0.0666 0.9927 -0.1009
vn 0.0444 0.9985 0.0329
vn -0.4700 0.5624 -0.6803
vn -0.4795 0.5570 -0.6781
vn -0.4662 0.5645 -0.6811
vn -0.4539 0.5714 -0.6838
vn 0.8161 0.1785 -0.5496
vn 0.8115 0.2732 -0.5166
vn 0.8150 0.2232 -0.5348
vn 0.8146 0.1146 -0.5685
vn 0.8818 -0.2877 -0.3738
vn 0.9276 0.2047 0.3124
vn 0.9095 0.0850 0.4069
vn 0.9232 0.3245 0.2060
vn 0.9018 0.4168 0.1145
vn -0.0624 0.2347 -0.9701
vn -0.2231 0.1079 -0.9688
vn -0.0672 0.2311 -0.9706
vn 0.0628 0.3255 -0.9435
vn 0.2290 0.1595 -0.9603
vn 0.6820 0.7204 0.1258
vn 0.6020 0.7750 0.1922
vn 0.6684 0.7310 0.1379
vn 0.7376 0.6713 0.0732
vn 0.7406 -0.0107 0.6718
vn 0.2912 0.4599 0.8388
vn -0.9297 -0.1187 0.3486
vn 0.8557 -0.4449 -0.2643
vn 0.1645 -0.4375 -0.8841
vn 0.8710 -0.3099 -0.3812
vn 0.7150 -0.5732 0.4002
vn 0.4009 -0.7845 0.4731
vn 0.5325 -0.7547 0.3832
vn 0.4173 -0.7820 0.4629
vn 0.2685 -0.7937 0.5458
vn 0.9397 -0.3388 0.0476
vn 0.9827 -0.1797 0.0447
vn 0.9316 -0.3603 0.0479
vn 0.8744 -0.4826 0.0492
vn -0.3247 0.9231 0.2059
vn -0.9152 0.1167 0.3857
vn -0.9866 0.1298 -0.0992
vn -0.8857 0.3326 0.3238
vn -0.9302 0.2059 0.3038
vn -0.8816 0.3422 0.3251
vn -0.8013 0.4915 0.3411
vn -0.6992 0.6767 -0.2309
vn -0.6917 0.5608 -0.4550
vn -0.7012 0.6579 -0.2748
vn -0.6608 0.7504 0.0130
vn -0.8995 0.2763 -0.3384
vn -0.8326 -0.5427 -0.1105
# 118 vertex normals

vt 0.6994 0.1915 0.0000
vt 0.7171 0.1699 0.0000
vt 0.7224 0.1842 0.0000
vt 0.7153 0.1960 0.0000
vt 0.8541 0.2031 0.0000
vt 0.8430 0.2277 0.0000
vt 0.8382 0.2088 0.0000
vt 0.7351 0.1617 0.0000
vt 0.7367 0.1859 0.0000
vt 0.7448 0.1767 0.0000
vt 0.8365 0.1988 0.0000
vt 0.8511 0.1849 0.0000
vt 0.7163 0.2096 0.0000
vt 0.6944 0.2051 0.0000
vt 0.7055 0.2169 0.0000
vt 0.7330 0.2077 0.0000
vt 0.7343 0.1961 0.0000
vt 0.8244 0.2236 0.0000
vt 0.8253 0.2065 0.0000
vt 0.8276 0.2334 0.0000
vt 0.7535 0.2026 0.0000
vt 0.7721 0.2143 0.0000
vt 0.7574 0.2240 0.0000
vt 0.7425 0.2163 0.0000
vt 0.7690 0.1917 0.0000
vt 0.7879 0.2110 0.0000
vt 0.7936 0.2325 0.0000
vt 0.7780 0.2332 0.0000
vt 0.7978 0.2216 0.0000
vt 0.7766 0.1902 0.0000
vt 0.7492 0.1924 0.0000
vt 0.7214 0.2216 0.0000
vt 0.7561 0.1874 0.0000
vt 0.7693 0.1708 0.0000
vt 0.7942 0.2467 0.0000
vt 0.7750 0.2485 0.0000
vt 0.8262 0.1867 0.0000
vt 0.8100 0.1990 0.0000
vt 0.7993 0.1864 0.0000
vt 0.8151 0.1740 0.0000
vt 0.8061 0.2112 0.0000
vt 0.7870 0.1990 0.0000
vt 0.8281 0.1648 0.0000
vt 0.8375 0.1851 0.0000
vt 0.8442 0.1725 0.0000
vt 0.7855 0.1735 0.0000
vt 0.7505 0.1650 0.0000
vt 0.8110 0.2427 0.0000
vt 0.8086 0.2265 0.0000
# 49 texture coords

g 003_planet_01
s 1
f 1/1/1 2/2/2 3/3/3 4/4/4 
s 2
f 2/5/5 1/6/5 5/7/5 
s 4
f 6/8/6 7/9/7 3/3/8 2/2/9 
s 1
f 7/9/10 6/8/10 8/10/10 
s 8
f 9/11/11 6/12/12 2/5/13 5/7/14 
s 4
f 1/1/15 10/13/15 11/14/15 
s 1
f 11/14/16 10/13/16 12/15/16 
s 2
f 13/16/17 10/13/18 4/4/19 14/17/20 
s 16
f 15/18/21 16/19/22 5/7/23 1/6/24 
s 8
f 15/18/25 1/6/25 11/20/25 
f 3/3/26 7/9/27 14/17/28 4/4/29 
s 1
f 17/21/30 18/22/31 19/23/32 20/24/33 
s 2
f 18/22/34 17/21/34 21/25/34 
s 4
f 22/26/35 23/27/36 19/28/37 18/22/38 
s 1
f 23/27/39 22/26/39 24/29/39 
s 8
f 25/30/40 22/26/41 18/22/42 21/25/43 
s 4
f 13/16/44 26/31/45 17/21/46 20/24/47 
s 1
f 26/31/48 13/16/48 14/17/48 
s 8
f 27/32/49 10/13/50 13/16/51 20/24/52 
s 1
f 21/25/53 28/33/53 29/34/53 
s 8
f 28/33/54 17/21/54 26/31/54 
s 2
f 19/28/55 23/27/56 27/35/57 20/36/58 
s 1
f 30/37/59 31/38/60 32/39/61 33/40/62 
s 2
f 31/38/63 30/37/63 16/19/63 
s 4
f 34/41/64 35/42/65 32/39/66 31/38/67 
s 2
f 35/42/68 34/41/68 22/26/68 
s 32
f 16/19/69 15/18/70 34/41/71 31/38/72 
s 4
f 29/43/73 36/44/74 30/37/75 33/40/76 
s 2
f 36/44/77 29/43/77 37/45/77 
s 16
f 25/30/78 21/25/79 29/34/80 33/46/81 
s 64
f 9/11/82 5/7/83 16/19/84 30/37/85 
s 16
f 9/11/86 30/37/86 36/44/86 
s 32
f 32/39/87 35/42/88 25/30/89 33/46/90 
f 21/25/91 17/21/91 28/33/91 
s 64
f 35/42/92 22/26/92 25/30/92 
s 16
f 10/13/93 27/32/93 12/15/93 
f 6/8/94 37/47/94 8/10/94 
s 32
f 6/12/95 9/11/95 36/44/95 
s 64
f 6/12/96 36/44/96 37/45/96 
s 2
f 28/33/97 26/31/97 8/10/97 
s 32
f 7/9/98 8/10/99 26/31/100 14/17/101 
s 128
f 28/33/102 8/10/103 37/47/104 29/34/105 
s 16
f 24/29/106 22/26/106 34/41/106 
s 32
f 27/35/107 23/27/107 12/48/107 
s 2
f 38/49/108 11/20/108 12/48/108 
s 8
f 38/49/109 12/48/110 23/27/111 24/29/112 
s 64
f 34/41/113 15/18/114 38/49/115 24/29/116 
s 128
f 38/49/117 15/18/117 11/20/117 
s 32
f 1/1/118 4/4/118 10/13/118 
# 23 polygons - 26 triangles

